<svg width="680" height="190" viewBox="0 0 680 190" fill="none" xmlns="http://www.w3.org/2000/svg">
<rect width="680" height="190" fill="#F1FF54" fill-opacity="0.7"/>
<path d="M155.944 148.896C155.778 151.19 154.929 152.997 153.396 154.315C151.872 155.634 149.86 156.293 147.36 156.293C144.626 156.293 142.473 155.375 140.9 153.539C139.338 151.693 138.557 149.164 138.557 145.951V144.647C138.557 142.597 138.918 140.79 139.641 139.228C140.363 137.665 141.394 136.469 142.731 135.639C144.079 134.799 145.642 134.379 147.419 134.379C149.88 134.379 151.862 135.038 153.366 136.356C154.87 137.675 155.739 139.525 155.974 141.908H151.579C151.472 140.531 151.086 139.535 150.422 138.92C149.768 138.295 148.767 137.982 147.419 137.982C145.954 137.982 144.855 138.51 144.123 139.564C143.4 140.609 143.029 142.235 143.01 144.442V146.054C143.01 148.358 143.356 150.043 144.05 151.107C144.753 152.172 145.856 152.704 147.36 152.704C148.718 152.704 149.729 152.396 150.393 151.781C151.066 151.156 151.452 150.194 151.55 148.896H155.944ZM157.893 147.929C157.893 146.356 158.195 144.955 158.801 143.725C159.406 142.494 160.275 141.542 161.408 140.868C162.551 140.194 163.874 139.857 165.378 139.857C167.517 139.857 169.26 140.512 170.607 141.82C171.965 143.129 172.722 144.906 172.878 147.152L172.907 148.236C172.907 150.668 172.229 152.621 170.871 154.096C169.514 155.561 167.692 156.293 165.407 156.293C163.122 156.293 161.296 155.561 159.929 154.096C158.571 152.631 157.893 150.639 157.893 148.119V147.929ZM162.126 148.236C162.126 149.74 162.409 150.893 162.976 151.693C163.542 152.484 164.353 152.88 165.407 152.88C166.433 152.88 167.233 152.489 167.81 151.708C168.386 150.917 168.674 149.657 168.674 147.929C168.674 146.454 168.386 145.312 167.81 144.501C167.233 143.69 166.423 143.285 165.378 143.285C164.343 143.285 163.542 143.69 162.976 144.501C162.409 145.302 162.126 146.547 162.126 148.236ZM179.484 140.15L179.616 141.923C180.739 140.546 182.258 139.857 184.172 139.857C186.213 139.857 187.614 140.663 188.376 142.274C189.489 140.663 191.076 139.857 193.137 139.857C194.855 139.857 196.135 140.36 196.975 141.366C197.814 142.362 198.234 143.866 198.234 145.878V156H193.986V145.893C193.986 144.994 193.811 144.34 193.459 143.93C193.107 143.51 192.487 143.3 191.599 143.3C190.329 143.3 189.45 143.905 188.962 145.116L188.977 156H184.743V145.907C184.743 144.989 184.562 144.325 184.201 143.915C183.84 143.505 183.225 143.3 182.355 143.3C181.154 143.3 180.285 143.798 179.748 144.794V156H175.515V140.15H179.484ZM205.471 140.15L205.603 141.923C206.726 140.546 208.244 139.857 210.158 139.857C212.199 139.857 213.601 140.663 214.362 142.274C215.476 140.663 217.062 139.857 219.123 139.857C220.842 139.857 222.121 140.36 222.961 141.366C223.801 142.362 224.221 143.866 224.221 145.878V156H219.973V145.893C219.973 144.994 219.797 144.34 219.445 143.93C219.094 143.51 218.474 143.3 217.585 143.3C216.315 143.3 215.437 143.905 214.948 145.116L214.963 156H210.729V145.907C210.729 144.989 210.549 144.325 210.188 143.915C209.826 143.505 209.211 143.3 208.342 143.3C207.141 143.3 206.271 143.798 205.734 144.794V156H201.501V140.15H205.471ZM236.979 154.389C235.935 155.658 234.489 156.293 232.644 156.293C230.944 156.293 229.646 155.805 228.747 154.828C227.858 153.852 227.404 152.421 227.385 150.536V140.15H231.618V150.39C231.618 152.04 232.37 152.865 233.874 152.865C235.31 152.865 236.296 152.367 236.833 151.371V140.15H241.081V156H237.097L236.979 154.389ZM248.171 140.15L248.303 141.981C249.436 140.565 250.954 139.857 252.858 139.857C254.538 139.857 255.788 140.351 256.608 141.337C257.429 142.323 257.849 143.798 257.868 145.761V156H253.635V145.863C253.635 144.965 253.439 144.315 253.049 143.915C252.658 143.505 252.009 143.3 251.101 143.3C249.909 143.3 249.016 143.808 248.42 144.823V156H244.187V140.15H248.171ZM270.275 156C270.08 155.619 269.938 155.146 269.851 154.579C268.825 155.722 267.492 156.293 265.852 156.293C264.299 156.293 263.01 155.844 261.984 154.945C260.969 154.047 260.461 152.914 260.461 151.547C260.461 149.867 261.081 148.578 262.321 147.68C263.571 146.781 265.373 146.327 267.727 146.317H269.675V145.409C269.675 144.677 269.484 144.091 269.104 143.651C268.732 143.212 268.142 142.992 267.331 142.992C266.618 142.992 266.057 143.163 265.646 143.505C265.246 143.847 265.046 144.315 265.046 144.911H260.812C260.812 143.993 261.096 143.144 261.662 142.362C262.229 141.581 263.029 140.971 264.064 140.531C265.1 140.082 266.262 139.857 267.551 139.857C269.504 139.857 271.052 140.351 272.194 141.337C273.347 142.313 273.923 143.69 273.923 145.468V152.338C273.933 153.842 274.143 154.979 274.553 155.751V156H270.275ZM266.774 153.056C267.399 153.056 267.976 152.919 268.503 152.646C269.03 152.362 269.421 151.986 269.675 151.518V148.793H268.093C265.974 148.793 264.846 149.525 264.709 150.99L264.694 151.239C264.694 151.767 264.88 152.201 265.251 152.543C265.622 152.885 266.13 153.056 266.774 153.056ZM286.667 154.389C285.622 155.658 284.177 156.293 282.331 156.293C280.632 156.293 279.333 155.805 278.435 154.828C277.546 153.852 277.092 152.421 277.072 150.536V140.15H281.306V150.39C281.306 152.04 282.058 152.865 283.562 152.865C284.997 152.865 285.983 152.367 286.521 151.371V140.15H290.769V156H286.784L286.667 154.389ZM299.03 136.254V140.15H301.74V143.256H299.03V151.166C299.03 151.752 299.143 152.172 299.367 152.426C299.592 152.68 300.021 152.807 300.656 152.807C301.125 152.807 301.54 152.772 301.901 152.704V155.912C301.071 156.166 300.217 156.293 299.338 156.293C296.369 156.293 294.855 154.794 294.797 151.796V143.256H292.482V140.15H294.797V136.254H299.03ZM311.394 156.293C309.069 156.293 307.175 155.58 305.71 154.154C304.255 152.729 303.527 150.829 303.527 148.456V148.046C303.527 146.454 303.835 145.033 304.45 143.783C305.065 142.523 305.935 141.557 307.058 140.883C308.19 140.199 309.479 139.857 310.925 139.857C313.093 139.857 314.797 140.541 316.037 141.908C317.287 143.275 317.912 145.214 317.912 147.724V149.452H307.819C307.956 150.487 308.366 151.317 309.05 151.942C309.743 152.567 310.617 152.88 311.672 152.88C313.303 152.88 314.577 152.289 315.495 151.107L317.575 153.437C316.94 154.335 316.081 155.038 314.997 155.546C313.913 156.044 312.712 156.293 311.394 156.293ZM310.91 143.285C310.07 143.285 309.387 143.568 308.859 144.135C308.342 144.701 308.01 145.512 307.863 146.566H313.752V146.229C313.732 145.292 313.479 144.569 312.99 144.062C312.502 143.544 311.809 143.285 310.91 143.285ZM311.291 133.5H315.905L311.848 138.041H308.405L311.291 133.5Z" fill="white"/>
</svg>
