<svg width="680" height="207" viewBox="0 0 680 207" fill="none" xmlns="http://www.w3.org/2000/svg">
<rect y="11" width="680" height="190" fill="#FF9F1C" fill-opacity="0.7"/>
<path d="M267.292 124.47H276.623V128H262.897V106.672H267.292V124.47ZM286.174 128.293C283.85 128.293 281.955 127.58 280.49 126.154C279.035 124.729 278.308 122.829 278.308 120.456V120.046C278.308 118.454 278.615 117.033 279.23 115.783C279.846 114.523 280.715 113.557 281.838 112.883C282.971 112.199 284.26 111.857 285.705 111.857C287.873 111.857 289.577 112.541 290.817 113.908C292.067 115.275 292.692 117.214 292.692 119.724V121.452H282.6C282.736 122.487 283.146 123.317 283.83 123.942C284.523 124.567 285.397 124.88 286.452 124.88C288.083 124.88 289.357 124.289 290.275 123.107L292.355 125.437C291.721 126.335 290.861 127.038 289.777 127.546C288.693 128.044 287.492 128.293 286.174 128.293ZM285.69 115.285C284.851 115.285 284.167 115.568 283.64 116.135C283.122 116.701 282.79 117.512 282.644 118.566H288.532V118.229C288.513 117.292 288.259 116.569 287.771 116.062C287.282 115.544 286.589 115.285 285.69 115.285ZM303.693 123.62C303.693 123.103 303.435 122.697 302.917 122.404C302.409 122.102 301.589 121.833 300.456 121.599C296.687 120.808 294.802 119.206 294.802 116.794C294.802 115.388 295.383 114.216 296.545 113.278C297.717 112.331 299.245 111.857 301.13 111.857C303.142 111.857 304.748 112.331 305.949 113.278C307.16 114.226 307.766 115.456 307.766 116.97H303.532C303.532 116.364 303.337 115.866 302.946 115.476C302.556 115.075 301.945 114.875 301.115 114.875C300.402 114.875 299.851 115.036 299.46 115.358C299.069 115.681 298.874 116.091 298.874 116.589C298.874 117.058 299.094 117.438 299.533 117.731C299.982 118.015 300.734 118.264 301.789 118.479C302.844 118.684 303.732 118.918 304.455 119.182C306.691 120.002 307.81 121.423 307.81 123.444C307.81 124.89 307.189 126.062 305.949 126.96C304.709 127.849 303.107 128.293 301.145 128.293C299.816 128.293 298.635 128.059 297.6 127.59C296.574 127.111 295.769 126.462 295.183 125.642C294.597 124.812 294.304 123.918 294.304 122.961H298.317C298.356 123.713 298.635 124.289 299.152 124.689C299.67 125.09 300.363 125.29 301.232 125.29C302.043 125.29 302.653 125.139 303.063 124.836C303.483 124.523 303.693 124.118 303.693 123.62ZM321.989 112.15L322.121 113.923C323.244 112.546 324.763 111.857 326.677 111.857C328.718 111.857 330.119 112.663 330.881 114.274C331.994 112.663 333.581 111.857 335.642 111.857C337.36 111.857 338.64 112.36 339.479 113.366C340.319 114.362 340.739 115.866 340.739 117.878V128H336.491V117.893C336.491 116.994 336.315 116.34 335.964 115.93C335.612 115.51 334.992 115.3 334.104 115.3C332.834 115.3 331.955 115.905 331.467 117.116L331.481 128H327.248V117.907C327.248 116.989 327.067 116.325 326.706 115.915C326.345 115.505 325.729 115.3 324.86 115.3C323.659 115.3 322.79 115.798 322.253 116.794V128H318.02V112.15H321.989ZM351.301 128.293C348.977 128.293 347.082 127.58 345.617 126.154C344.162 124.729 343.435 122.829 343.435 120.456V120.046C343.435 118.454 343.742 117.033 344.357 115.783C344.973 114.523 345.842 113.557 346.965 112.883C348.098 112.199 349.387 111.857 350.832 111.857C353 111.857 354.704 112.541 355.944 113.908C357.194 115.275 357.819 117.214 357.819 119.724V121.452H347.727C347.863 122.487 348.273 123.317 348.957 123.942C349.65 124.567 350.524 124.88 351.579 124.88C353.21 124.88 354.484 124.289 355.402 123.107L357.482 125.437C356.848 126.335 355.988 127.038 354.904 127.546C353.82 128.044 352.619 128.293 351.301 128.293ZM350.817 115.285C349.978 115.285 349.294 115.568 348.767 116.135C348.249 116.701 347.917 117.512 347.771 118.566H353.659V118.229C353.64 117.292 353.386 116.569 352.897 116.062C352.409 115.544 351.716 115.285 350.817 115.285ZM351.198 105.5H355.812L351.755 110.041H348.312L351.198 105.5ZM359.577 119.958C359.577 117.487 360.129 115.52 361.232 114.055C362.346 112.59 363.864 111.857 365.788 111.857C367.331 111.857 368.605 112.434 369.611 113.586V105.5H373.859V128H370.036L369.831 126.315C368.776 127.634 367.419 128.293 365.759 128.293C363.894 128.293 362.395 127.561 361.262 126.096C360.139 124.621 359.577 122.575 359.577 119.958ZM363.811 120.266C363.811 121.75 364.069 122.888 364.587 123.679C365.104 124.47 365.856 124.865 366.843 124.865C368.151 124.865 369.074 124.313 369.611 123.21V116.955C369.084 115.852 368.171 115.3 366.872 115.3C364.831 115.3 363.811 116.955 363.811 120.266ZM381.608 128H377.36V112.15H381.608V128ZM377.111 108.049C377.111 107.414 377.321 106.892 377.741 106.481C378.171 106.071 378.752 105.866 379.484 105.866C380.207 105.866 380.783 106.071 381.213 106.481C381.643 106.892 381.857 107.414 381.857 108.049C381.857 108.693 381.638 109.221 381.198 109.631C380.769 110.041 380.197 110.246 379.484 110.246C378.771 110.246 378.195 110.041 377.756 109.631C377.326 109.221 377.111 108.693 377.111 108.049ZM394.294 128C394.099 127.619 393.957 127.146 393.869 126.579C392.844 127.722 391.511 128.293 389.87 128.293C388.317 128.293 387.028 127.844 386.003 126.945C384.987 126.047 384.479 124.914 384.479 123.547C384.479 121.867 385.1 120.578 386.34 119.68C387.59 118.781 389.392 118.327 391.745 118.317H393.693V117.409C393.693 116.677 393.503 116.091 393.122 115.651C392.751 115.212 392.16 114.992 391.35 114.992C390.637 114.992 390.075 115.163 389.665 115.505C389.265 115.847 389.064 116.315 389.064 116.911H384.831C384.831 115.993 385.114 115.144 385.681 114.362C386.247 113.581 387.048 112.971 388.083 112.531C389.118 112.082 390.28 111.857 391.569 111.857C393.522 111.857 395.07 112.351 396.213 113.337C397.365 114.313 397.941 115.69 397.941 117.468V124.338C397.951 125.842 398.161 126.979 398.571 127.751V128H394.294ZM390.793 125.056C391.418 125.056 391.994 124.919 392.521 124.646C393.049 124.362 393.439 123.986 393.693 123.518V120.793H392.111C389.992 120.793 388.864 121.525 388.728 122.99L388.713 123.239C388.713 123.767 388.898 124.201 389.27 124.543C389.641 124.885 390.148 125.056 390.793 125.056ZM409.777 123.62C409.777 123.103 409.519 122.697 409.001 122.404C408.493 122.102 407.673 121.833 406.54 121.599C402.771 120.808 400.886 119.206 400.886 116.794C400.886 115.388 401.467 114.216 402.629 113.278C403.801 112.331 405.329 111.857 407.214 111.857C409.226 111.857 410.832 112.331 412.033 113.278C413.244 114.226 413.85 115.456 413.85 116.97H409.616C409.616 116.364 409.421 115.866 409.03 115.476C408.64 115.075 408.029 114.875 407.199 114.875C406.486 114.875 405.935 115.036 405.544 115.358C405.153 115.681 404.958 116.091 404.958 116.589C404.958 117.058 405.178 117.438 405.617 117.731C406.066 118.015 406.818 118.264 407.873 118.479C408.928 118.684 409.816 118.918 410.539 119.182C412.775 120.002 413.894 121.423 413.894 123.444C413.894 124.89 413.273 126.062 412.033 126.96C410.793 127.849 409.191 128.293 407.229 128.293C405.9 128.293 404.719 128.059 403.684 127.59C402.658 127.111 401.853 126.462 401.267 125.642C400.681 124.812 400.388 123.918 400.388 122.961H404.401C404.44 123.713 404.719 124.289 405.236 124.689C405.754 125.09 406.447 125.29 407.316 125.29C408.127 125.29 408.737 125.139 409.147 124.836C409.567 124.523 409.777 124.118 409.777 123.62Z" fill="white"/>
<path d="M677.953 171.079V203.46H647.73L677.953 171.079Z" fill="black" stroke="black"/>
<path d="M633.159 203.46H642.4L678.492 164.394V155.968L633.159 203.46Z" fill="#372E2E"/>
<path d="M677.953 164.603V171.394L647.371 203.46H641.254L677.953 164.603Z" fill="#3D3737"/>
<path d="M622.905 203.46H633.126L679.032 156.334V145.714L622.905 203.46Z" fill="#3D3D46"/>
<path d="M614.81 204H623.347L678.492 145.783V136L614.81 204Z" fill="#1E1B1B"/>
<path d="M653.667 155.233L609.261 203.46H604.016L653.667 149.492V155.233Z" fill="black" stroke="black"/>
<g filter="url(#filter0_d)">
<path d="M656.365 135.01L595.924 202.921H495.54L604.333 83.2144V121.774L656.365 64.2225V135.01Z" fill="#2E3539"/>
<path d="M656.365 135.01L595.924 202.921H495.54L604.333 83.2144V121.774L656.365 64.2225V135.01Z" stroke="black"/>
</g>
<path d="M679.571 62.9232L555.816 201.841H550.047L679.571 57.2064V62.9232Z" fill="white"/>
<path d="M670.396 112.305L589.65 201.841H574.873L670.396 93.3651V112.305Z" fill="#9D7716"/>
<path d="M679.571 74.3725L565.896 204H563L679.571 70.159V74.3725Z" fill="black"/>
<path d="M554.365 115.276V132.222L618.048 63.2894V47.4922L554.365 115.276Z" fill="#2E3539"/>
<path d="M537.635 152.396L492.958 204H477.19L537.635 136.54V152.396Z" fill="#C28A35"/>
<path d="M626.143 83.5235L525.088 202.921H519.825L626.143 76.6352V83.5235Z" fill="#474B54"/>
<path d="M679.032 34.7089L607.794 111.715V88.2408L679.032 12.9527V34.7089Z" fill="#C4C4C4"/>
<path d="M592.599 93.3652L650.968 25.7758V0.000152588L568.936 93.3652H592.599Z" fill="#C2A642" fill-opacity="0.26"/>
<path d="M578.651 76.6352V81.591L466.786 204H461L578.651 76.6352Z" fill="black"/>
<defs>
<filter id="filter0_d" x="495.54" y="64.2224" width="160.825" height="142.698" filterUnits="userSpaceOnUse" color-interpolation-filters="sRGB">
<feFlood flood-opacity="0" result="BackgroundImageFix"/>
<feColorMatrix in="SourceAlpha" type="matrix" values="0 0 0 0 0 0 0 0 0 0 0 0 0 0 0 0 0 0 127 0"/>
<feOffset dy="4"/>
<feColorMatrix type="matrix" values="0 0 0 0 0 0 0 0 0 0 0 0 0 0 0 0 0 0 0.25 0"/>
<feBlend mode="normal" in2="BackgroundImageFix" result="effect1_dropShadow"/>
<feBlend mode="normal" in="SourceGraphic" in2="effect1_dropShadow" result="shape"/>
</filter>
</defs>
</svg>
